<svg xmlns="http://www.w3.org/2000/svg" xmlns:xlink="http://www.w3.org/1999/xlink" width="1080" height="1080" viewBox="0 0 1080 1080">
  <defs>
    <style>
      .cls-1 {
        filter: url(#filter);
      }

      .cls-2 {
        fill: #fff;
        fill-rule: evenodd;
      }
    </style>
    <filter id="filter" filterUnits="userSpaceOnUse">
      <feOffset result="offset" dx="0.784" dy="8.966" in="SourceAlpha"/>
      <feGaussianBlur result="blur" stdDeviation="6.782"/>
      <feFlood result="flood" flood-opacity="0.23"/>
      <feComposite result="composite" operator="in" in2="blur"/>
      <feBlend result="blend" in="SourceGraphic"/>
    </filter>
  </defs>
  <g class="cls-1">
    <path class="cls-2" d="M345.028,429.6c24.52-75.72,125.455-99.349,160.11-189.807C509.97,338.042,417.1,376.971,345.028,429.6Z"/>
    <path class="cls-2" d="M549.038,894.435c-28.655-42.2-40.017-109.081-1.291-175.6,32.107-55.153,127.926-89.4,160.109-194.972,20.962-68.761,16.016-149.949-23.241-216.922C736.406,355.625,768.229,430.744,775,469.629c15.2,87.3-4.023,156.537-72.307,216.923C646.838,735.944,540.294,765.336,549.038,894.435Z"/>
    <path class="cls-2" d="M399.259,766.606s-103.118-81.323-74.89-220.8c22.712-112.218,89.2-102.036,170.439-191.1C553.5,290.375,546.6,231.915,543.874,166.2c77.718,75.156,74.585,178.087,49.065,245.328C565.9,482.762,458.054,535.579,426.374,584.547,392.754,636.512,383.477,679.378,399.259,766.606Z"/>
    <path class="cls-2" d="M497.39,862.155c-64.44-49.2-97.423-161.528-51.648-241.455,47.414-82.789,99.075-70.373,167.857-187.224,40.036-68.018,25.824-139.45,25.824-139.45s42.429,55.226,45.192,152.362C686.049,496.8,661.84,553.8,630.384,588.42c-30.657,33.741-74.076,60.6-103.3,99.423C495.47,729.848,475.946,777.98,497.39,862.155Z"/>
  </g>
</svg>
