<svg width="20" height="20" viewBox="0 0 20 20" fill="none" xmlns="http://www.w3.org/2000/svg">
<path fill-rule="evenodd" clip-rule="evenodd" d="M10.0556 1.99991L10.3371 2.5106L17.9999 17.9995H2.00247L10.0556 1.99991ZM11.4568 1.22748L11.7554 1.76928L19.434 17.29C19.9601 18.3534 19.1864 19.5995 17.9999 19.5995H2.00247C0.811198 19.5995 0.0377077 18.3442 0.573296 17.2801L8.6264 1.28056C9.20508 0.13087 10.8354 0.100294 11.4568 1.22748ZM9.10941 8.59472C9.10941 8.10755 9.50434 7.71261 9.99152 7.71261C10.4787 7.71261 10.8736 8.10755 10.8736 8.59472V12.3167C10.8736 12.8039 10.4787 13.1988 9.99152 13.1988C9.50434 13.1988 9.10941 12.8039 9.10941 12.3167V8.59472ZM9.10941 14.9953C9.10941 14.5081 9.50434 14.1132 9.99152 14.1132C10.4787 14.1132 10.8736 14.5081 10.8736 14.9953V15.0598C10.8736 15.547 10.4787 15.9419 9.99152 15.9419C9.50434 15.9419 9.10941 15.547 9.10941 15.0598V14.9953Z" fill="white"/>
</svg>
