<svg width="134" height="211" viewBox="0 0 134 211" fill="none" xmlns="http://www.w3.org/2000/svg">
<path fill-rule="evenodd" clip-rule="evenodd" d="M7.40332 76.318C14.5078 54.3788 43.7529 47.5324 53.7938 21.323C55.1939 49.7898 28.2856 61.0692 7.40332 76.318Z" fill="#006EFF"/>
<path fill-rule="evenodd" clip-rule="evenodd" d="M66.5137 211C58.2111 198.773 54.9191 179.395 66.1396 160.121C75.4423 144.141 103.205 134.218 112.53 103.63C118.603 83.707 117.17 60.1834 105.796 40.7786C120.802 54.8843 130.022 76.6494 131.984 87.916C136.388 113.21 130.819 133.271 111.034 150.768C94.8504 165.079 63.9802 173.595 66.5137 211Z" fill="#006EFF"/>
<path fill-rule="evenodd" clip-rule="evenodd" d="M23.1165 173.963C23.1165 173.963 -6.76108 150.4 1.41774 109.988C7.99836 77.4734 27.2627 80.4236 50.801 54.618C67.8065 35.9787 65.8073 19.0404 65.0175 0C87.5356 21.7758 86.6279 51.5992 79.2337 71.0817C71.3993 91.7212 40.1519 107.024 30.9728 121.213C21.2317 136.269 18.5438 148.689 23.1165 173.963Z" fill="#006EFF"/>
<path fill-rule="evenodd" clip-rule="evenodd" d="M51.5492 201.647C32.8782 187.392 23.3217 154.846 36.5846 131.688C50.3224 107.7 65.2907 111.298 85.2197 77.441C96.8198 57.7333 92.702 37.0365 92.702 37.0365C92.702 37.0365 104.995 53.0378 105.796 81.1821C106.212 95.7886 99.1972 112.304 90.0831 122.335C81.2004 132.111 68.6202 139.893 60.1527 151.142C50.9929 163.312 45.336 177.258 51.5492 201.647Z" fill="#006EFF"/>
</svg>
