<svg width="167" height="145" viewBox="0 0 167 145" fill="none" xmlns="http://www.w3.org/2000/svg">
<path fill-rule="evenodd" clip-rule="evenodd" d="M25.7811 0.0322266L42.5653 0.045505L79.054 67.6142L68.9436 86.4109L25.7811 0.0322266Z" fill="white"/>
<path fill-rule="evenodd" clip-rule="evenodd" d="M149.323 17.085L166.086 17.1688L98.9376 144.526L89.6698 126.419L149.323 17.085Z" fill="white"/>
<path fill-rule="evenodd" clip-rule="evenodd" d="M85.4325 118.158L93.7141 102.448L107.532 128.315L98.9377 144.698L85.4325 118.158ZM107.508 128.271L98.9376 144.525L89.6698 126.419L98.1832 110.815L107.508 128.271Z" fill="white"/>
<path fill-rule="evenodd" clip-rule="evenodd" d="M92.5347 55.7153L109.421 55.7003L64.0572 144.525L56.3059 125.039L92.5347 55.7153Z" fill="white"/>
<path fill-rule="evenodd" clip-rule="evenodd" d="M0 17.1045L16.7842 17.1178L74.5044 124.004L63.9559 144.481L0 17.1045ZM65.5308 107.387L74.5044 124.004L64.0031 144.39L56.3059 125.039L65.5308 107.387Z" fill="white"/>
<path fill-rule="evenodd" clip-rule="evenodd" d="M67.427 29.6759L128.631 29.6609L120.169 46.2308H76.1893L67.427 29.6759Z" fill="white"/>
<path fill-rule="evenodd" clip-rule="evenodd" d="M39.7924 0.0150029L143.965 0L135.504 16.5699H48.5547L39.7924 0.0150029ZM51.4889 16.5699H48.5547L39.8074 0.0433151L42.5653 0.045497L51.4889 16.5699Z" fill="white"/>
</svg>
