<svg width="10" height="16" viewBox="0 0 10 16" fill="none" xmlns="http://www.w3.org/2000/svg">
<path d="M8.99185 14.0624C9.25564 14.3053 9.27505 14.7188 9.03522 14.986C8.81383 15.2326 8.44893 15.2683 8.18663 15.0813L8.12333 15.0299L1.0144 8.48374C0.752822 8.24287 0.734137 7.83877 0.958344 7.57459L1.0144 7.51624L8.12333 0.970044C8.38712 0.727138 8.79538 0.746805 9.03522 1.01397C9.2566 1.26059 9.25709 1.63188 9.04838 1.8786L8.99185 1.93754L2.6707 7.75811C2.53881 7.87956 2.52909 8.08631 2.64901 8.21989C2.65589 8.22756 2.66313 8.23489 2.6707 8.24187L8.99185 14.0624Z" fill="#65637F"/>
</svg>
