<svg width="20" height="20" viewBox="0 0 20 20" fill="none" xmlns="http://www.w3.org/2000/svg">
<path d="M17.9369 1.87683H16.6446V1.13836C16.6446 0.730733 16.3138 0.399902 15.9061 0.399902C15.4985 0.399902 15.1677 0.730733 15.1677 1.13836V1.87683H4.82921V1.13836C4.82921 0.730733 4.49838 0.399902 4.09075 0.399902C3.68311 0.399902 3.35228 0.730733 3.35228 1.13836V1.87683H2.05998C1.14391 1.87683 0.398438 2.6223 0.398438 3.53836V17.9384C0.398438 18.8544 1.14391 19.5999 2.05998 19.5999H17.9369C18.853 19.5999 19.5984 18.8544 19.5984 17.9384V3.53836C19.5984 2.6223 18.853 1.87683 17.9369 1.87683ZM17.9369 18.123H2.05998C1.95807 18.123 1.87536 18.0399 1.87536 17.9384V7.04606H18.1215V17.9384C18.1215 18.0399 18.0384 18.123 17.9369 18.123ZM4.09075 14.4307C4.49859 14.4307 4.82921 14.7613 4.82921 15.1691C4.82921 15.577 4.49859 15.9076 4.09075 15.9076C3.6829 15.9076 3.35228 15.577 3.35228 15.1691C3.35228 14.7613 3.6829 14.4307 4.09075 14.4307ZM7.04459 14.4307C7.45243 14.4307 7.78305 14.7613 7.78305 15.1691C7.78305 15.577 7.45243 15.9076 7.04459 15.9076C6.63675 15.9076 6.30613 15.577 6.30613 15.1691C6.30613 14.7613 6.63675 14.4307 7.04459 14.4307ZM9.99844 14.4307C10.4063 14.4307 10.7369 14.7613 10.7369 15.1691C10.7369 15.577 10.4063 15.9076 9.99844 15.9076C9.5906 15.9076 9.25998 15.577 9.25998 15.1691C9.25998 14.7613 9.5906 14.4307 9.99844 14.4307ZM12.9569 14.4307C13.3647 14.4307 13.6954 14.7613 13.6954 15.1691C13.6954 15.577 13.3647 15.9076 12.9569 15.9076C12.5491 15.9076 12.2184 15.577 12.2184 15.1691C12.2184 14.7613 12.5491 14.4307 12.9569 14.4307ZM4.09075 11.4768C4.49859 11.4768 4.82921 11.8074 4.82921 12.2153C4.82921 12.6231 4.49859 12.9537 4.09075 12.9537C3.6829 12.9537 3.35228 12.6231 3.35228 12.2153C3.35228 11.8074 3.6829 11.4768 4.09075 11.4768ZM7.04459 11.4768C7.45243 11.4768 7.78305 11.8074 7.78305 12.2153C7.78305 12.6231 7.45243 12.9537 7.04459 12.9537C6.63675 12.9537 6.30613 12.6231 6.30613 12.2153C6.30613 11.8074 6.63675 11.4768 7.04459 11.4768ZM9.99844 11.4768C10.4063 11.4768 10.7369 11.8074 10.7369 12.2153C10.7369 12.6231 10.4063 12.9537 9.99844 12.9537C9.5906 12.9537 9.25998 12.6231 9.25998 12.2153C9.25998 11.8074 9.5906 11.4768 9.99844 11.4768ZM12.9569 11.4768C13.3647 11.4768 13.6954 11.8074 13.6954 12.2153C13.6954 12.6231 13.3647 12.9537 12.9569 12.9537C12.5491 12.9537 12.2184 12.6231 12.2184 12.2153C12.2184 11.8074 12.5491 11.4768 12.9569 11.4768ZM15.9061 11.4768C16.314 11.4768 16.6446 11.8074 16.6446 12.2153C16.6446 12.6231 16.314 12.9537 15.9061 12.9537C15.4983 12.9537 15.1677 12.6231 15.1677 12.2153C15.1677 11.8074 15.4983 11.4768 15.9061 11.4768ZM7.04459 8.52298C7.45243 8.52298 7.78305 8.8536 7.78305 9.26144C7.78305 9.66928 7.45243 9.9999 7.04459 9.9999C6.63675 9.9999 6.30613 9.66928 6.30613 9.26144C6.30613 8.8536 6.63675 8.52298 7.04459 8.52298ZM9.99844 8.52298C10.4063 8.52298 10.7369 8.8536 10.7369 9.26144C10.7369 9.66928 10.4063 9.9999 9.99844 9.9999C9.5906 9.9999 9.25998 9.66928 9.25998 9.26144C9.25998 8.8536 9.5906 8.52298 9.99844 8.52298ZM12.9523 8.52298C13.3601 8.52298 13.6907 8.8536 13.6907 9.26144C13.6907 9.66928 13.3601 9.9999 12.9523 9.9999C12.5444 9.9999 12.2138 9.66928 12.2138 9.26144C12.2138 8.8536 12.5444 8.52298 12.9523 8.52298ZM15.9061 8.52298C16.314 8.52298 16.6446 8.8536 16.6446 9.26144C16.6446 9.66928 16.314 9.9999 15.9061 9.9999C15.4983 9.9999 15.1677 9.66928 15.1677 9.26144C15.1677 8.8536 15.4983 8.52298 15.9061 8.52298ZM3.35228 3.35375V4.09221C3.35228 4.49984 3.68311 4.83067 4.09075 4.83067C4.49838 4.83067 4.82921 4.49984 4.82921 4.09221V3.35375H15.1677V4.09221C15.1677 4.49984 15.4985 4.83067 15.9061 4.83067C16.3138 4.83067 16.6446 4.49984 16.6446 4.09221V3.35375H17.9369C18.0384 3.35375 18.1215 3.43646 18.1215 3.53836V5.56913H1.87536V3.53836C1.87536 3.43646 1.95807 3.35375 2.05998 3.35375H3.35228Z" fill="#89879E"/>
</svg>
