<svg width="16" height="15" viewBox="0 0 16 15" fill="none" xmlns="http://www.w3.org/2000/svg">
<path d="M11.3333 8.33333C11.5101 8.33333 11.6797 8.2631 11.8047 8.13807C11.9298 8.01305 12 7.84348 12 7.66667C12 7.48986 11.9298 7.32029 11.8047 7.19526C11.6797 7.07024 11.5101 7 11.3333 7C11.1565 7 10.987 7.07024 10.8619 7.19526C10.7369 7.32029 10.6667 7.48986 10.6667 7.66667C10.6667 7.84348 10.7369 8.01305 10.8619 8.13807C10.987 8.2631 11.1565 8.33333 11.3333 8.33333ZM11.3333 11C11.5101 11 11.6797 10.9298 11.8047 10.8047C11.9298 10.6797 12 10.5101 12 10.3333C12 10.1565 11.9298 9.98695 11.8047 9.86193C11.6797 9.7369 11.5101 9.66667 11.3333 9.66667C11.1565 9.66667 10.987 9.7369 10.8619 9.86193C10.7369 9.98695 10.6667 10.1565 10.6667 10.3333C10.6667 10.5101 10.7369 10.6797 10.8619 10.8047C10.987 10.9298 11.1565 11 11.3333 11ZM8.66667 7.66667C8.66667 7.84348 8.59643 8.01305 8.4714 8.13807C8.34638 8.2631 8.17681 8.33333 8 8.33333C7.82319 8.33333 7.65362 8.2631 7.5286 8.13807C7.40357 8.01305 7.33333 7.84348 7.33333 7.66667C7.33333 7.48986 7.40357 7.32029 7.5286 7.19526C7.65362 7.07024 7.82319 7 8 7C8.17681 7 8.34638 7.07024 8.4714 7.19526C8.59643 7.32029 8.66667 7.48986 8.66667 7.66667ZM8.66667 10.3333C8.66667 10.5101 8.59643 10.6797 8.4714 10.8047C8.34638 10.9298 8.17681 11 8 11C7.82319 11 7.65362 10.9298 7.5286 10.8047C7.40357 10.6797 7.33333 10.5101 7.33333 10.3333C7.33333 10.1565 7.40357 9.98695 7.5286 9.86193C7.65362 9.7369 7.82319 9.66667 8 9.66667C8.17681 9.66667 8.34638 9.7369 8.4714 9.86193C8.59643 9.98695 8.66667 10.1565 8.66667 10.3333ZM4.66667 8.33333C4.84348 8.33333 5.01305 8.2631 5.13807 8.13807C5.2631 8.01305 5.33333 7.84348 5.33333 7.66667C5.33333 7.48986 5.2631 7.32029 5.13807 7.19526C5.01305 7.07024 4.84348 7 4.66667 7C4.48986 7 4.32029 7.07024 4.19526 7.19526C4.07024 7.32029 4 7.48986 4 7.66667C4 7.84348 4.07024 8.01305 4.19526 8.13807C4.32029 8.2631 4.48986 8.33333 4.66667 8.33333ZM4.66667 11C4.84348 11 5.01305 10.9298 5.13807 10.8047C5.2631 10.6797 5.33333 10.5101 5.33333 10.3333C5.33333 10.1565 5.2631 9.98695 5.13807 9.86193C5.01305 9.7369 4.84348 9.66667 4.66667 9.66667C4.48986 9.66667 4.32029 9.7369 4.19526 9.86193C4.07024 9.98695 4 10.1565 4 10.3333C4 10.5101 4.07024 10.6797 4.19526 10.8047C4.32029 10.9298 4.48986 11 4.66667 11Z" fill="#5E6568"/>
<path fill-rule="evenodd" clip-rule="evenodd" d="M4.66668 0.166626C4.79929 0.166626 4.92647 0.219304 5.02024 0.313073C5.114 0.406841 5.16668 0.534018 5.16668 0.666626V1.17529C5.60802 1.16663 6.09401 1.16663 6.62868 1.16663H9.37068C9.90601 1.16663 10.392 1.16663 10.8333 1.17529V0.666626C10.8333 0.534018 10.886 0.406841 10.9798 0.313073C11.0736 0.219304 11.2007 0.166626 11.3333 0.166626C11.466 0.166626 11.5931 0.219304 11.6869 0.313073C11.7807 0.406841 11.8333 0.534018 11.8333 0.666626V1.21796C12.0067 1.23129 12.1709 1.24818 12.326 1.26863C13.1073 1.37396 13.74 1.59529 14.2393 2.09396C14.738 2.59329 14.9593 3.22596 15.0647 4.00729C15.1667 4.76729 15.1667 5.73729 15.1667 6.96263V8.37063C15.1667 9.59596 15.1667 10.5666 15.0647 11.326C14.9593 12.1073 14.738 12.74 14.2393 13.2393C13.74 13.738 13.1073 13.9593 12.326 14.0646C11.566 14.1666 10.596 14.1666 9.37068 14.1666H6.63001C5.40468 14.1666 4.43402 14.1666 3.67468 14.0646C2.89335 13.9593 2.26068 13.738 1.76135 13.2393C1.26268 12.74 1.04135 12.1073 0.936015 11.326C0.834015 10.566 0.834015 9.59596 0.834015 8.37063V6.96263C0.834015 5.73729 0.834015 4.76663 0.936015 4.00729C1.04135 3.22596 1.26268 2.59329 1.76135 2.09396C2.26068 1.59529 2.89335 1.37396 3.67468 1.26863C3.83024 1.24818 3.99446 1.23129 4.16735 1.21796V0.666626C4.16735 0.534133 4.21994 0.407057 4.31356 0.313308C4.40718 0.219559 4.53419 0.166803 4.66668 0.166626ZM3.80668 2.25996C3.13668 2.34996 2.75001 2.51929 2.46801 2.80129C2.18601 3.08329 2.01668 3.46996 1.92668 4.13996C1.91157 4.25329 1.89868 4.37307 1.88801 4.49929H14.112C14.1013 4.37307 14.0885 4.25307 14.0733 4.13929C13.9833 3.46929 13.814 3.08263 13.532 2.80063C13.25 2.51863 12.8633 2.34929 12.1927 2.25929C11.508 2.16729 10.6047 2.16596 9.33335 2.16596H6.66668C5.39535 2.16596 4.49268 2.16796 3.80668 2.25996ZM1.83335 6.99996C1.83335 6.43063 1.83335 5.93529 1.84201 5.49996H14.158C14.1667 5.93529 14.1667 6.43063 14.1667 6.99996V8.33329C14.1667 9.60463 14.1653 10.508 14.0733 11.1933C13.9833 11.8633 13.814 12.25 13.532 12.532C13.25 12.814 12.8633 12.9833 12.1927 13.0733C11.508 13.1653 10.6047 13.1666 9.33335 13.1666H6.66668C5.39535 13.1666 4.49268 13.1653 3.80668 13.0733C3.13668 12.9833 2.75001 12.814 2.46801 12.532C2.18601 12.25 2.01668 11.8633 1.92668 11.1926C1.83468 10.508 1.83335 9.60463 1.83335 8.33329V6.99996Z" fill="#5E6568"/>
</svg>
