<svg width="20" height="20" viewBox="0 0 20 20" fill="none" xmlns="http://www.w3.org/2000/svg">
<path fill-rule="evenodd" clip-rule="evenodd" d="M0.733398 10C0.733398 15.2957 5.03777 19.6 10.3334 19.6C15.629 19.6 19.9334 15.2957 19.9334 10C19.9334 4.7044 15.629 0.400024 10.3334 0.400024C5.03777 0.400024 0.733398 4.7044 0.733398 10ZM2.07293 10C2.07293 5.44561 5.77898 1.73956 10.3334 1.73956C14.8878 1.73956 18.5939 5.44561 18.5939 10C18.5939 14.5544 14.8878 18.2605 10.3334 18.2605C5.77898 18.2605 2.07293 14.5544 2.07293 10ZM10.6449 11.5743C10.8217 11.5743 10.9922 11.5048 11.1185 11.3785C11.2448 11.2522 11.3142 11.0817 11.3142 10.9049L11.3142 6.14411C11.3142 5.77786 11.0111 5.47476 10.6449 5.47476C10.2786 5.47476 9.97552 5.77786 9.97552 6.14411V10.2356H7.07079C6.70454 10.2356 6.40144 10.5387 6.40144 10.9049C6.40144 11.2712 6.70454 11.5743 7.07079 11.5743H10.6449Z" fill="#89879E"/>
</svg>