<svg width="14" height="14" viewBox="0 0 14 14" fill="none" xmlns="http://www.w3.org/2000/svg">
<path d="M13.4148 0.577321C13.4157 0.578292 13.4167 0.579267 13.4177 0.580246C13.6597 0.82239 13.6608 1.21428 13.42 1.45769L7.93867 7.00002L13.42 12.5424C13.6436 12.7684 13.6586 13.1224 13.4659 13.3657L13.4177 13.4198C13.4167 13.4208 13.4157 13.4218 13.4148 13.4227C13.1732 13.6611 12.7839 13.6588 12.5453 13.4175L6.99968 7.81148L1.45454 13.4175C1.21132 13.6601 0.82203 13.6598 0.582102 13.4198C0.340072 13.1777 0.339041 12.7858 0.579794 12.5424L6.06113 7.00002L0.579794 1.45769C0.339041 1.21428 0.340072 0.82239 0.582102 0.580246C0.82203 0.340205 1.21132 0.339914 1.45161 0.579596L1.45454 0.582536L6.99968 6.18857L12.5453 0.582536C12.7839 0.341239 13.1732 0.338904 13.4148 0.577321Z" fill="#65637F"/>
</svg>
