<svg width="21" height="20" viewBox="0 0 21 20" fill="none" xmlns="http://www.w3.org/2000/svg">
<path d="M4.21302 19.5995C3.2451 19.5995 2.41926 19.2887 1.81541 18.6848C0.95405 17.8235 0.687649 16.5092 1.06949 14.9819L3.27174 6.16398C3.65358 4.63661 5.14543 3.15364 6.66392 2.7718L15.4818 0.569552C17.0092 0.18771 18.3234 0.454111 19.1848 1.31548C20.0461 2.17684 20.3125 3.49108 19.9307 5.01845L17.7284 13.8363C17.3466 15.3637 15.8548 16.8467 14.3363 17.2285L5.51839 19.4308C5.06551 19.5373 4.63039 19.5995 4.21302 19.5995ZM15.8192 1.84828L7.00136 4.05941C5.96239 4.31693 4.83463 5.44469 4.56823 6.48366L2.36598 15.3015C2.09958 16.3583 2.24166 17.2196 2.7567 17.7435C3.27174 18.2586 4.14198 18.4007 5.19871 18.1343L14.0166 15.932C15.0556 15.6745 16.1833 14.5379 16.4408 13.5078L18.6431 4.68989C18.9095 3.63317 18.7674 2.7718 18.2524 2.24788C17.7373 1.72396 16.876 1.59076 15.8192 1.84828Z" fill="#89879E"/>
<path d="M10.5092 13.7653C8.43131 13.7653 6.73522 12.0692 6.73522 9.99127C6.73522 7.91334 8.43131 6.21725 10.5092 6.21725C12.5872 6.21725 14.2833 7.91334 14.2833 9.99127C14.2833 12.0692 12.5872 13.7653 10.5092 13.7653ZM10.5092 7.54926C9.15947 7.54926 8.06722 8.6415 8.06722 9.99127C8.06722 11.341 9.15947 12.4333 10.5092 12.4333C11.859 12.4333 12.9512 11.341 12.9512 9.99127C12.9512 8.6415 11.859 7.54926 10.5092 7.54926Z" fill="#89879E"/>
</svg>
