<svg width="21" height="20" viewBox="0 0 21 20" fill="none" xmlns="http://www.w3.org/2000/svg">
<path fill-rule="evenodd" clip-rule="evenodd" d="M1.81444 18.6848C2.41828 19.2886 3.24412 19.5994 4.21205 19.5994C4.62941 19.5994 5.06453 19.5373 5.51741 19.4307L14.3353 17.2284C15.8538 16.8466 17.3456 15.3636 17.7275 13.8363L19.9297 5.01839C20.3116 3.49102 20.0452 2.17678 19.1838 1.31541C18.3224 0.45405 17.0082 0.187649 15.4808 0.569491L6.66294 2.77174C5.14445 3.15358 3.65261 4.63655 3.27076 6.16392L1.06851 14.9818C0.686673 16.5092 0.953074 17.8234 1.81444 18.6848ZM6.73423 9.99113C6.73423 12.0691 8.43032 13.7651 10.5082 13.7651C12.5862 13.7651 14.2823 12.0691 14.2823 9.99113C14.2823 7.9132 12.5862 6.21712 10.5082 6.21712C8.43032 6.21712 6.73423 7.9132 6.73423 9.99113Z" fill="#191925"/>
</svg>
