<svg width="19" height="19" viewBox="0 0 19 19" fill="none" xmlns="http://www.w3.org/2000/svg">
<path d="M2.00001 3.40001C2.00001 2.62201 2.62201 2.00001 3.40001 2.00001H10.6C11.378 2.00001 12 2.62201 12 3.40001V4.00001C12 4.13133 12.0259 4.26136 12.0761 4.38269C12.1264 4.50401 12.2 4.61425 12.2929 4.70711C12.3858 4.79997 12.496 4.87363 12.6173 4.92388C12.7386 4.97414 12.8687 5.00001 13 5.00001C13.1313 5.00001 13.2614 4.97414 13.3827 4.92388C13.504 4.87363 13.6143 4.79997 13.7071 4.70711C13.8 4.61425 13.8736 4.50401 13.9239 4.38269C13.9741 4.26136 14 4.13133 14 4.00001V3.40001C14 1.51801 12.482 5.31336e-06 10.6 5.31336e-06H3.40001C2.95329 -0.000785104 2.51081 0.086619 2.09795 0.257205C1.68508 0.427791 1.30996 0.678203 0.99408 0.99408C0.678203 1.30996 0.427791 1.68508 0.257205 2.09795C0.086619 2.51081 -0.000785104 2.95329 5.31336e-06 3.40001V10.6C5.31336e-06 12.482 1.51801 14 3.40001 14H4.00001C4.26522 14 4.51958 13.8946 4.70711 13.7071C4.89465 13.5196 5.00001 13.2652 5.00001 13C5.00001 12.7348 4.89465 12.4804 4.70711 12.2929C4.51958 12.1054 4.26522 12 4.00001 12H3.40001C2.62201 12 2.00001 11.378 2.00001 10.6V3.40001Z" fill="#006EFF"/>
<path d="M7 9.4C7 8.76348 7.25286 8.15303 7.70294 7.70294C8.15303 7.25286 8.76348 7 9.4 7H16.6C17.2365 7 17.847 7.25286 18.2971 7.70294C18.7471 8.15303 19 8.76348 19 9.4V16.6C19 17.2365 18.7471 17.847 18.2971 18.2971C17.847 18.7471 17.2365 19 16.6 19H9.4C8.76348 19 8.15303 18.7471 7.70294 18.2971C7.25286 17.847 7 17.2365 7 16.6V9.4Z" fill="#006EFF"/>
</svg>
