<svg width="18" height="16" viewBox="0 0 18 16" fill="none" xmlns="http://www.w3.org/2000/svg">
<path fill-rule="evenodd" clip-rule="evenodd" d="M7.19316 5.55598L9.00016 2.66498L10.8072 5.55598C10.869 5.65494 10.9505 5.74011 11.0467 5.80619C11.1428 5.87228 11.2516 5.91785 11.3661 5.94009C11.4806 5.96232 11.5985 5.96073 11.7124 5.93542C11.8263 5.91012 11.9338 5.86163 12.0282 5.79298L15.9082 2.97098L14.4182 10.797C14.4072 10.854 14.3768 10.9054 14.3321 10.9425C14.2874 10.9795 14.2312 10.9999 14.1732 11H3.82816C3.76993 11.0001 3.7135 10.9799 3.66858 10.9428C3.62367 10.9057 3.59311 10.8542 3.58216 10.797L2.09216 2.96998L5.97216 5.79198C6.06648 5.86046 6.17387 5.90881 6.28767 5.93403C6.40147 5.95925 6.51924 5.96079 6.63366 5.93856C6.74808 5.91633 6.8567 5.87081 6.95278 5.80483C7.04886 5.73884 7.13034 5.65379 7.19216 5.55498M9.72016 0.986981C9.64378 0.864641 9.53751 0.76375 9.41138 0.693804C9.28525 0.623858 9.14339 0.587158 8.99916 0.587158C8.85493 0.587158 8.71308 0.623858 8.58694 0.693804C8.46081 0.76375 8.35455 0.864641 8.27816 0.986981L6.29016 4.16998L1.64616 0.791981C1.02316 0.338981 0.166162 0.881981 0.311162 1.63798L2.10816 11.078C2.18452 11.4782 2.3981 11.8391 2.71208 12.0987C3.02606 12.3583 3.42077 12.5002 3.82816 12.5H14.1732C14.5805 12.4999 14.9751 12.3578 15.2889 12.098C15.6027 11.8383 15.816 11.4772 15.8922 11.077L17.6892 1.63798C17.8342 0.881981 16.9782 0.337981 16.3552 0.791981L11.7102 4.16998L9.72016 0.986981ZM3.00016 14C2.80125 14 2.61048 14.079 2.46983 14.2197C2.32918 14.3603 2.25016 14.5511 2.25016 14.75C2.25016 14.9489 2.32918 15.1397 2.46983 15.2803C2.61048 15.421 2.80125 15.5 3.00016 15.5H15.0002C15.1991 15.5 15.3898 15.421 15.5305 15.2803C15.6711 15.1397 15.7502 14.9489 15.7502 14.75C15.7502 14.5511 15.6711 14.3603 15.5305 14.2197C15.3898 14.079 15.1991 14 15.0002 14H3.00016Z" fill="#006EFF"/>
</svg>
