<svg width="30" height="30" viewBox="0 0 30 30" fill="none" xmlns="http://www.w3.org/2000/svg">
<path d="M4.7874 0.3125C2.7874 0.3125 0.784902 1.8125 0.784902 4.8125L4.7874 12.8125L8.7874 4.8125C8.7874 1.8125 6.7874 0.3125 4.7874 0.3125ZM22.4312 2.75C21.9999 2.76813 21.5812 2.85 21.2312 2.925L21.4687 4.025C21.8187 3.94688 22.1812 3.8975 22.4874 3.875L22.4312 2.75ZM4.7874 2.8125C5.89365 2.8125 6.7874 3.70813 6.7874 4.8125C6.7874 5.91875 5.89365 6.8125 4.7874 6.8125C3.68303 6.8125 2.7874 5.91875 2.7874 4.8125C2.7874 3.70813 3.68303 2.8125 4.7874 2.8125ZM23.6749 2.825L23.4874 3.93125C23.7937 3.99563 24.0999 4.07625 24.3687 4.2375L24.9124 3.25C24.5312 3.04688 24.1062 2.86438 23.6749 2.825ZM20.0812 3.24375C19.6999 3.3925 19.3187 3.52562 18.9937 3.65625L19.4374 4.6875C19.7812 4.54125 20.1437 4.41375 20.4499 4.30625L20.0812 3.24375ZM25.9374 4.08125L25.0812 4.8125C25.3062 5.07 25.4812 5.3875 25.6187 5.64375L26.6249 5.1375C26.4124 4.72812 26.2249 4.41813 25.9374 4.08125ZM17.9499 4.1375C17.5687 4.33187 17.2562 4.505 16.9187 4.675L17.4687 5.6625C17.7937 5.475 18.1499 5.29375 18.4374 5.15L17.9499 4.1375ZM15.9312 5.25625C15.5999 5.45 15.2749 5.64375 14.9562 5.85625L15.5687 6.79375C15.8749 6.59375 16.1937 6.40625 16.5062 6.21875L15.9312 5.25625ZM27.0124 6.375C26.6437 6.4375 26.2687 6.48125 25.8999 6.525C25.9249 6.8375 25.9062 7.175 25.8437 7.4375L26.9374 7.69375C26.9999 7.24375 27.0562 6.78125 27.0124 6.375ZM14.0062 6.48125C13.6937 6.69375 13.3874 6.9125 13.0749 7.125L13.7249 8.04375C14.0249 7.825 14.3312 7.61875 14.6374 7.40625L14.0062 6.48125ZM12.1562 7.8C11.8437 8.025 11.5187 8.275 11.2499 8.48125L11.9312 9.375C12.2749 9.125 12.5124 8.9375 12.8249 8.70625L12.1562 7.8ZM25.4687 8.3C25.2812 8.5875 25.0624 8.875 24.8437 9.09375L25.6624 9.875C25.9312 9.55625 26.2187 9.23125 26.4187 8.90625L25.4687 8.3ZM10.3562 9.18125C10.0499 9.41875 9.74365 9.6625 9.4749 9.8875L10.1874 10.7563C10.4812 10.5125 10.7812 10.2625 11.0562 10.0625L10.3562 9.18125ZM24.0687 9.8125C23.7812 10.0437 23.4812 10.2688 23.2062 10.4563L23.8499 11.3813C24.1812 11.1562 24.5062 10.9125 24.7874 10.6875L24.0687 9.8125ZM8.60615 10.6187C8.3124 10.8562 8.03115 11.1063 7.74365 11.35L8.4749 12.2063C8.75615 11.9625 9.0374 11.7188 9.3249 11.4812L8.60615 10.6187ZM22.2874 11.0562C21.9687 11.2437 21.6374 11.4375 21.3374 11.6L21.8749 12.5938C22.2124 12.3875 22.5937 12.2063 22.8749 12.0188L22.2874 11.0562ZM6.8874 12.0938C6.60615 12.3438 6.33115 12.5938 6.0499 12.85L6.80615 13.6875C7.08115 13.4375 7.3624 13.1875 7.6374 12.9375L6.8874 12.0938ZM20.3562 12.1187C20.0249 12.2812 19.6937 12.45 19.3624 12.6125L19.8437 13.625C20.2312 13.4375 20.5187 13.2812 20.8687 13.1187L20.3562 12.1187ZM18.3562 13.0813C18.0124 13.2375 17.6812 13.3875 17.3312 13.5312L17.7874 14.5625C18.1312 14.4125 18.4749 14.2563 18.8187 14.1L18.3562 13.0813ZM5.2249 13.625C4.90615 13.9062 4.68428 14.125 4.39365 14.4062L5.1874 15.2188C5.48115 14.9375 5.71865 14.6938 5.99365 14.4563L5.2249 13.625ZM16.3062 13.9875C15.9624 14.1313 15.6187 14.2812 15.2749 14.425L15.7124 15.4688C16.0624 15.325 16.4062 15.175 16.7499 15.025L16.3062 13.9875ZM14.2374 14.8625C13.8937 15.0125 13.5499 15.1625 13.1999 15.3L13.6374 16.3438C13.9812 16.2 14.3312 16.05 14.6749 15.9062L14.2374 14.8625ZM25.7874 15.3125C23.7874 15.3125 21.7874 16.8125 21.7874 19.8125L25.7874 27.8125L29.7874 19.8125C29.7874 16.8125 27.7874 15.3125 25.7874 15.3125ZM12.1624 15.7375C11.8062 15.9 11.4312 16.05 11.1249 16.1812L11.5687 17.2188C11.9374 17.0625 12.2874 16.9125 12.5999 16.775L12.1624 15.7375ZM10.0874 16.625C9.7499 16.7812 9.35615 16.9562 9.05615 17.0938L9.51865 18.1187C9.8874 17.9562 10.2124 17.7938 10.5374 17.6562L10.0874 16.625ZM8.0249 17.5625C7.6749 17.7313 7.3124 17.9062 6.9999 18.0625L7.50615 19.0688C7.84365 18.8938 8.19365 18.7312 8.4999 18.5812L8.0249 17.5625ZM25.7874 17.8125C26.8937 17.8125 27.7874 18.7062 27.7874 19.8125C27.7874 20.9188 26.8937 21.8125 25.7874 21.8125C24.6812 21.8125 23.7874 20.9188 23.7874 19.8125C23.7874 18.7062 24.6812 17.8125 25.7874 17.8125ZM5.9874 18.5812C5.65615 18.7625 5.3249 18.95 4.9874 19.1437L5.5499 20.1187C5.86865 19.9312 6.19365 19.7562 6.51865 19.5812L5.9874 18.5812ZM4.00615 19.75C3.65553 19.95 3.31678 20.2188 3.0249 20.4125L3.70615 21.3125C4.01678 21.0875 4.35115 20.8563 4.61865 20.6938L4.00615 19.75ZM2.1374 21.1625C1.8374 21.4375 1.54178 21.7563 1.3124 22.025L2.16865 22.7563C2.40928 22.4625 2.61865 22.2437 2.8999 21.9937L2.1374 21.1625ZM15.7499 21.2437L15.8499 22.3625C16.1749 22.3062 16.4999 22.3438 16.8249 22.3937L17.0187 21.2875C16.6062 21.225 16.1687 21.1812 15.7499 21.2437ZM13.4249 21.8687L13.8499 22.9125C14.1749 22.7688 14.5124 22.6562 14.8562 22.55C14.7374 22.1937 14.6499 21.8312 14.5562 21.4688C14.1624 21.5812 13.7687 21.7312 13.4249 21.8687ZM18.2687 21.8125L17.6312 22.7375C17.8937 22.9312 18.1499 23.1375 18.3562 23.3937L19.2062 22.6562C18.8874 22.3312 18.6437 22.025 18.2687 21.8125ZM12.3624 22.375C12.0187 22.55 11.6874 22.75 11.3562 22.9438L11.9249 23.9125C12.2499 23.7375 12.5687 23.5312 12.8874 23.3625L12.3624 22.375ZM0.625527 23.0625C0.436777 23.4688 0.283652 23.9062 0.212402 24.2938L1.31865 24.4875C1.38615 24.1312 1.48303 23.875 1.6249 23.5688C1.28178 23.4188 0.954277 23.2375 0.625527 23.0625ZM10.3812 23.55C10.0624 23.7562 9.7499 23.9625 9.4374 24.175L10.0624 25.1125C10.3749 24.9062 10.6812 24.6937 10.9937 24.4875L10.3812 23.55ZM19.9249 23.625L18.9812 24.2375C19.1812 24.5375 19.3749 24.85 19.5562 25.1688L20.5312 24.6063C20.3124 24.2563 20.1562 23.9438 19.9249 23.625ZM8.50615 24.8125C8.19365 25.0187 7.88115 25.2188 7.5749 25.4375L8.1999 26.375C8.4999 26.1562 8.81865 25.95 9.1374 25.7375L8.50615 24.8125ZM1.33115 25.4062C0.969277 25.4813 0.604277 25.5437 0.240527 25.6125C0.306152 26.05 0.481777 26.475 0.640527 26.8125L1.65615 26.325C1.52053 26.0125 1.39178 25.6875 1.33115 25.4062ZM21.0874 25.5812L20.1124 26.1437C20.3062 26.4812 20.5312 26.8438 20.7124 27.1313L21.6562 26.525C21.4437 26.1938 21.2624 25.8812 21.0874 25.5812ZM6.6499 26.05C6.3374 26.2437 6.03115 26.4312 5.70615 26.6125L6.2624 27.5938C6.59365 27.4 6.9249 27.2062 7.24365 27L6.6499 26.05ZM2.19365 27.0688L1.4249 27.8937C1.7724 28.225 2.20115 28.4438 2.66865 28.5438L2.91865 27.45C2.64115 27.3938 2.38178 27.2563 2.19365 27.0688ZM4.75615 27.0875C4.44303 27.2312 4.11803 27.3438 3.78115 27.4125L4.0374 28.5125C4.43865 28.4313 4.81615 28.2812 5.19365 28.125L4.75615 27.0875ZM22.2749 27.3875L21.4062 28.0938C21.6749 28.425 22.0062 28.7437 22.2937 28.9688L22.9874 28.0812C22.7124 27.8687 22.4749 27.6125 22.2749 27.3875ZM23.7812 28.4813L23.4999 29.575C23.9937 29.675 24.3624 29.7062 24.8249 29.6562L24.6874 28.5375C24.3812 28.5875 24.0812 28.5563 23.7812 28.4813Z" fill="#EC8225"/>
</svg>
