<svg width="16" height="16" viewBox="0 0 16 16" fill="none" xmlns="http://www.w3.org/2000/svg">
<path fill-rule="evenodd" clip-rule="evenodd" d="M1.3751 14.7225C1.71244 15.0329 2.18142 15.2 2.68331 15.2C2.76769 15.2 2.84869 15.1935 2.93281 15.1867C2.97993 15.1829 3.02803 15.179 3.07824 15.1762L5.72757 14.7385C6.22946 14.6589 6.87122 14.3246 7.21678 13.9665L13.9717 7.05051C15.6584 5.3235 15.6091 3.62038 13.8236 1.98888C12.0382 0.357379 10.2775 0.40513 8.59081 2.13213L7.48615 3.26313C7.47595 3.27288 7.46612 3.28295 7.45665 3.29333L1.83586 9.0481C1.48206 9.39828 1.17764 10.0429 1.12004 10.5284L0.815619 13.107C0.741569 13.7436 0.947262 14.3326 1.3751 14.7225ZM7.60193 4.86882L2.73268 9.85987C2.56812 10.027 2.37889 10.4249 2.34597 10.6557L2.04155 13.2343C2.00864 13.4969 2.07446 13.7118 2.22256 13.8471C2.37066 13.9824 2.59281 14.0301 2.86432 13.9904L5.51365 13.5526C5.75225 13.5128 6.14718 13.3059 6.31173 13.1388L11.1831 8.15135C9.53327 7.64705 8.21046 6.43591 7.60193 4.86882ZM12.1573 7.15392L13.0667 6.22282C14.0869 5.17229 14.4572 4.20135 12.968 2.8484C12.3097 2.23559 11.742 1.98092 11.2319 1.98092C10.5984 1.98092 10.0471 2.36293 9.48763 2.93594L8.58471 3.86145C8.97363 5.55953 10.3858 6.86329 12.1573 7.15392Z" fill="white"/>
</svg>
