<svg width="20" height="16" viewBox="0 0 20 16" fill="none" xmlns="http://www.w3.org/2000/svg">
<path d="M0.899037 8.73497C0.799733 8.50266 0.748535 8.25263 0.748535 7.99997C0.748535 7.74732 0.799733 7.49729 0.899037 7.26497C1.70704 5.34497 2.99904 3.72997 4.61504 2.61797C6.23104 1.50597 8.10304 0.944974 10 1.00397C11.897 0.944974 13.768 1.50597 15.385 2.61797C17.002 3.72997 18.293 5.34497 19.101 7.26497C19.2003 7.49729 19.2515 7.74732 19.2515 7.99997C19.2515 8.25263 19.2003 8.50266 19.101 8.73497C18.293 10.655 17.001 12.27 15.385 13.382C13.769 14.494 11.897 15.055 10 14.996C8.10304 15.055 6.23204 14.494 4.61504 13.382C2.99804 12.27 1.70704 10.655 0.900037 8.73497" stroke="black" stroke-width="1.5" stroke-linecap="round" stroke-linejoin="round"/>
<path d="M10 11.5C10.4596 11.5 10.9148 11.4095 11.3394 11.2336C11.764 11.0577 12.1499 10.7999 12.4749 10.4749C12.7999 10.1499 13.0577 9.76403 13.2336 9.33939C13.4095 8.91475 13.5 8.45963 13.5 8C13.5 7.54037 13.4095 7.08525 13.2336 6.66061C13.0577 6.23597 12.7999 5.85013 12.4749 5.52513C12.1499 5.20012 11.764 4.94231 11.3394 4.76642C10.9148 4.59053 10.4596 4.5 10 4.5C9.07174 4.5 8.1815 4.86875 7.52513 5.52513C6.86875 6.1815 6.5 7.07174 6.5 8C6.5 8.92826 6.86875 9.8185 7.52513 10.4749C8.1815 11.1313 9.07174 11.5 10 11.5Z" stroke="black" stroke-width="1.5" stroke-linecap="round" stroke-linejoin="round"/>
</svg>
