<svg width="20" height="18" viewBox="0 0 20 18" fill="none" xmlns="http://www.w3.org/2000/svg">
<path d="M3.45012 13.92C2.34895 12.8762 1.48007 11.612 0.900118 10.21C0.801075 9.97935 0.75 9.73098 0.75 9.47998C0.75 9.22898 0.801075 8.98061 0.900118 8.74998C1.67032 6.87636 2.96127 5.26268 4.62012 4.09998C6.19462 2.99969 8.07986 2.43202 10.0001 2.47998C11.3817 2.44529 12.752 2.73648 14.0001 3.32998M16.5601 5.04998C17.6554 6.09282 18.5206 7.35311 19.1001 8.74998C19.1992 8.98061 19.2502 9.22898 19.2502 9.47998C19.2502 9.73098 19.1992 9.97935 19.1001 10.21C18.3299 12.0836 17.039 13.6973 15.3801 14.86C13.8056 15.9603 11.9204 16.5279 10.0001 16.48C8.61854 16.5147 7.24821 16.2235 6.00012 15.63" stroke="black" stroke-width="1.5" stroke-linecap="round" stroke-linejoin="round"/>
<path d="M6.71 10.65C6.56976 10.2759 6.4986 9.8795 6.5 9.48C6.5 8.55174 6.86875 7.6615 7.52513 7.00513C8.1815 6.34875 9.07174 5.98 10 5.98C10.4 5.978 10.796 6.05 11.17 6.19M13.29 8.31C13.43 8.684 13.502 9.08 13.5 9.48C13.5 10.4083 13.1313 11.2985 12.4749 11.9549C11.8185 12.6113 10.9283 12.98 10 12.98C9.6005 12.9814 9.20407 12.9102 8.83 12.77M1 17L17 1" stroke="black" stroke-width="1.5" stroke-linecap="round" stroke-linejoin="round"/>
</svg>
