<svg width="20" height="20" viewBox="0 0 20 20" fill="none" xmlns="http://www.w3.org/2000/svg">
<path d="M10.02 19.25C15.1275 19.25 19.25 15.1075 19.25 9.98C19.25 4.8725 15.1275 0.75 10.02 0.75M10.02 19.25C4.8925 19.25 0.75 15.1075 0.75 9.98C0.75 4.8725 4.8925 0.75 10.02 0.75M10.02 19.25V0.75M18.026 5.375H1.98M18.0775 14.5125H1.9285M0.8 10H19.2" stroke="black" stroke-linecap="round" stroke-linejoin="round"/>
<path d="M10.01 19.25C12.564 19.25 14.625 15.1075 14.625 9.98C14.625 4.8725 12.564 0.75 10.01 0.75C7.446 0.75 5.375 4.8725 5.375 9.98C5.375 15.1075 7.446 19.25 10.01 19.25Z" stroke="black" stroke-linecap="round" stroke-linejoin="round"/>
</svg>
