<svg width="20" height="20" viewBox="0 0 20 20" fill="none" xmlns="http://www.w3.org/2000/svg">
<path d="M10.707 0.293L19.707 9.293C20.337 9.923 19.891 11 19 11H18V17C18 17.7956 17.6839 18.5587 17.1213 19.1213C16.5587 19.6839 15.7956 20 15 20H14V13C14 12.2348 13.7077 11.4985 13.1827 10.9417C12.6578 10.385 11.9399 10.0499 11.176 10.005L11 10H8.99999C8.20434 10 7.44128 10.3161 6.87867 10.8787C6.31606 11.4413 5.99999 12.2044 5.99999 13V20H4.99999C4.20434 20 3.44128 19.6839 2.87867 19.1213C2.31606 18.5587 1.99999 17.7956 1.99999 17V11H0.999993C0.109993 11 -0.337007 9.923 0.292993 9.293L9.29299 0.293C9.48052 0.105529 9.73483 0.000213623 9.99999 0.000213623C10.2652 0.000213623 10.5195 0.105529 10.707 0.293ZM11 12C11.2652 12 11.5196 12.1054 11.7071 12.2929C11.8946 12.4804 12 12.7348 12 13V20H7.99999V13C8.00003 12.7551 8.08995 12.5187 8.25271 12.3356C8.41547 12.1526 8.63974 12.0357 8.88299 12.007L8.99999 12H11Z" fill="white"/>
</svg>
