<svg width="16" height="20" viewBox="0 0 16 20" fill="none" xmlns="http://www.w3.org/2000/svg">
<path d="M8 1.80149C6.34976 1.80149 4.76712 2.46545 3.60022 3.64731C2.43333 4.82918 1.77778 6.43213 1.77778 8.10353C1.77778 10.6802 3.36178 13.1659 5.10044 15.0916C5.98946 16.0726 6.95949 16.975 8 17.7889C8.15526 17.6682 8.33748 17.5212 8.54667 17.3477C9.38205 16.6529 10.1683 15.8997 10.8996 15.0934C12.6382 13.1659 14.2222 10.6811 14.2222 8.10353C14.2222 6.43213 13.5667 4.82918 12.3998 3.64731C11.2329 2.46545 9.65024 1.80149 8 1.80149ZM8 20L7.496 19.6489L7.49333 19.6471L7.488 19.6426L7.47022 19.63L7.40356 19.5823L7.16356 19.4049C5.94743 18.4792 4.81767 17.4425 3.78844 16.3079C1.97156 14.293 0 11.377 0 8.10263C3.16163e-08 5.95368 0.842855 3.89274 2.34315 2.37321C3.84344 0.853668 5.87827 0 8 0C10.1217 0 12.1566 0.853668 13.6569 2.37321C15.1571 3.89274 16 5.95368 16 8.10263C16 11.377 14.0284 14.2939 12.2116 16.3061C11.1826 17.4407 10.0531 18.4774 8.83733 19.4031C8.73605 19.4797 8.63382 19.5551 8.53067 19.6291L8.512 19.6417L8.50667 19.6462L8.50489 19.6471L8 20ZM8 6.30295C7.5285 6.30295 7.07632 6.49265 6.74292 6.83033C6.40952 7.168 6.22222 7.62599 6.22222 8.10353C6.22222 8.58108 6.40952 9.03906 6.74292 9.37674C7.07632 9.71441 7.5285 9.90412 8 9.90412C8.4715 9.90412 8.92368 9.71441 9.25708 9.37674C9.59048 9.03906 9.77778 8.58108 9.77778 8.10353C9.77778 7.62599 9.59048 7.168 9.25708 6.83033C8.92368 6.49265 8.4715 6.30295 8 6.30295ZM4.44444 8.10353C4.44444 7.14844 4.81905 6.23247 5.48584 5.55712C6.15264 4.88177 7.05701 4.50236 8 4.50236C8.94299 4.50236 9.84736 4.88177 10.5142 5.55712C11.181 6.23247 11.5556 7.14844 11.5556 8.10353C11.5556 9.05862 11.181 9.9746 10.5142 10.6499C9.84736 11.3253 8.94299 11.7047 8 11.7047C7.05701 11.7047 6.15264 11.3253 5.48584 10.6499C4.81905 9.9746 4.44444 9.05862 4.44444 8.10353Z" fill="black"/>
</svg>
