<svg width="16" height="16" viewBox="0 0 16 16" fill="none" xmlns="http://www.w3.org/2000/svg">
<path d="M10.0782 0C9.04098 0 8.2041 -1.10892e-08 7.54629 0.0870698C6.86344 0.176372 6.28832 0.369861 5.83157 0.817116C5.434 1.20781 5.23218 1.68781 5.12672 2.25191C5.02429 2.80037 5.00456 3.47088 5.00001 4.27609C4.9992 4.42412 5.05838 4.5664 5.16453 4.67163C5.27068 4.77686 5.4151 4.83642 5.56602 4.83721C5.71694 4.838 5.862 4.77995 5.96928 4.67584C6.07657 4.57173 6.13729 4.43007 6.1381 4.28205C6.14265 3.46865 6.16389 2.89191 6.24583 2.45358C6.3255 2.03237 6.45221 1.78753 6.63658 1.6067C6.84674 1.40056 7.14189 1.2666 7.69879 1.19293C8.27163 1.11777 9.03111 1.11628 10.1199 1.11628H10.8786C11.9681 1.11628 12.7276 1.11777 13.3005 1.19293C13.8574 1.2666 14.1517 1.4013 14.3627 1.6067C14.5721 1.81284 14.7087 2.10158 14.7838 2.64856C14.8612 3.20967 14.8619 3.95535 14.8619 5.02326V10.9767C14.8619 12.0447 14.8612 12.7896 14.7838 13.3522C14.7087 13.8984 14.5721 14.1872 14.3619 14.3933C14.1517 14.5994 13.8574 14.7334 13.3005 14.8071C12.7276 14.8822 11.9681 14.8837 10.8786 14.8837H10.1199C9.03111 14.8837 8.27163 14.8822 7.69803 14.8071C7.14189 14.7334 6.84674 14.5987 6.63658 14.3933C6.45221 14.2117 6.3255 13.9676 6.24583 13.5464C6.16389 13.1081 6.14265 12.5313 6.1381 11.718C6.1377 11.6447 6.12258 11.5722 6.09362 11.5046C6.06465 11.437 6.0224 11.3757 5.96928 11.3242C5.91616 11.2726 5.8532 11.2318 5.78401 11.2041C5.71482 11.1764 5.64074 11.1624 5.56602 11.1628C5.49129 11.1632 5.41737 11.178 5.34848 11.2064C5.2796 11.2348 5.21709 11.2763 5.16453 11.3284C5.11197 11.3805 5.07039 11.4422 5.04216 11.5101C5.01393 11.578 4.99961 11.6506 5.00001 11.7239C5.00456 12.5291 5.02429 13.1996 5.12672 13.7481C5.23294 14.3122 5.434 14.7922 5.83233 15.1829C6.28832 15.6309 6.8642 15.8229 7.54705 15.9137C8.2041 16 9.04098 16 10.0782 16H10.9203C11.9583 16 12.7944 16 13.4522 15.9137C14.1351 15.8229 14.7102 15.6309 15.1669 15.1829C15.6237 14.7349 15.8194 14.1708 15.912 13.501C16 12.8558 16 12.035 16 11.0177V4.98233C16 3.96502 16 3.14419 15.912 2.49898C15.8202 1.82921 15.6237 1.26512 15.1669 0.817116C14.7102 0.369116 14.1351 0.177116 13.4522 0.0870698C12.7944 -1.10892e-08 11.9575 0 10.9203 0H10.0782Z" fill="black"/>
<path d="M10.4311 7.40006C10.5819 7.40006 10.7267 7.46327 10.8334 7.57578C10.9401 7.68829 11 7.84088 11 8C11 8.15911 10.9401 8.31171 10.8334 8.42422C10.7267 8.53673 10.5819 8.59994 10.4311 8.59994H2.10703L3.59463 9.94381C3.70931 10.0473 3.78029 10.1947 3.79195 10.3534C3.80362 10.5121 3.75502 10.6692 3.65683 10.7901C3.55865 10.9111 3.41894 10.9859 3.26842 10.9982C3.11791 11.0105 2.96892 10.9593 2.85424 10.8557L0.199174 8.45595C0.136716 8.39963 0.0865699 8.32971 0.0521869 8.251C0.0178039 8.17229 0 8.08666 0 8C0 7.91334 0.0178039 7.82771 0.0521869 7.749C0.0865699 7.67029 0.136716 7.60037 0.199174 7.54404L2.85424 5.14428C2.91103 5.09301 2.97683 5.05405 3.04789 5.0296C3.11896 5.00515 3.19389 4.9957 3.26842 5.00179C3.34295 5.00789 3.41561 5.0294 3.48225 5.0651C3.5489 5.1008 3.60822 5.14999 3.65683 5.20987C3.70545 5.26975 3.7424 5.33913 3.76559 5.41407C3.78877 5.48901 3.79773 5.56803 3.79195 5.64661C3.78618 5.7252 3.76578 5.80182 3.73192 5.8721C3.69806 5.94237 3.65141 6.00492 3.59463 6.05619L2.10779 7.40006H10.4311Z" fill="black"/>
</svg>
