<svg width="20" height="20" viewBox="0 0 20 20" fill="none" xmlns="http://www.w3.org/2000/svg">
<path d="M7.05814 2.16034L7.15725 2.20621L8.68227 3.04292C8.50818 3.57459 8.40992 4.13765 8.39938 4.72085L7.59844 4.28135L7.59911 15.2759C7.65899 15.298 7.71819 15.3225 7.77655 15.3495L7.92341 15.4236L11.5984 17.44L11.5984 12.8447C12.078 13.6932 12.6114 14.5974 13.1988 15.5573L13.1984 17.4392L16.3907 15.688L16.3957 15.6883C16.4678 15.577 16.5122 15.5077 16.5289 15.4804C17.0664 14.5998 17.5563 13.7656 17.9991 12.9782L17.9984 16.1619C17.9984 16.4237 17.8721 16.6668 17.6635 16.8167L17.5815 16.8683L12.7815 19.5018C12.5726 19.6164 12.3255 19.6307 12.107 19.5448L12.0154 19.5018L7.15725 16.8364C6.96409 16.7305 6.73765 16.7099 6.53101 16.7763L6.42958 16.8167L1.54302 19.1625C1.43541 19.2141 1.31768 19.241 1.19844 19.241C0.788169 19.241 0.450032 18.9303 0.40382 18.5301L0.398438 18.4363V5.58927C0.398438 5.31362 0.538424 5.05977 0.764953 4.91295L0.853854 4.86308L6.42958 2.18642C6.62815 2.0911 6.85536 2.08289 7.05814 2.16034ZM5.99844 4.17594L1.99844 6.09624V17.1604L5.74041 15.3643C5.82496 15.3237 5.91124 15.2884 5.99879 15.2583L5.99844 4.17594ZM14.7984 0.400024C17.4494 0.400024 19.5984 2.42649 19.5984 4.92626C19.5984 6.40971 18.3306 9.20274 15.795 13.3053C15.7675 13.3499 15.6667 13.4796 15.4926 13.6944L15.4135 13.7917C15.1334 14.1353 14.6293 14.1854 14.2877 13.9036C14.2477 13.8707 14.211 13.8339 14.1781 13.7938C13.9777 13.5498 13.8604 13.4 13.8261 13.3445C11.2743 9.22051 9.99844 6.41442 9.99844 4.92626C9.99844 2.42649 12.1475 0.400024 14.7984 0.400024ZM14.7984 2.00935C13.0089 2.00935 11.5984 3.33934 11.5984 4.92626C11.5984 5.8467 12.4508 7.84708 14.1437 10.7597C14.2317 10.911 14.3219 11.0649 14.4145 11.2212C14.4249 11.2388 14.4786 11.3282 14.5755 11.4895L14.6277 11.5761C14.6848 11.6711 14.8077 11.7015 14.9021 11.6441C14.9298 11.6273 14.953 11.604 14.9697 11.5762C15.0736 11.4036 15.1446 11.2851 15.1827 11.2207C15.2723 11.0694 15.3597 10.9203 15.4451 10.7736C17.0929 7.94009 17.947 5.96795 17.9962 5.01116L17.9984 4.92626C17.9984 3.33934 16.588 2.00935 14.7984 2.00935Z" fill="#621DBF"/>
</svg>
