<svg width="24" height="32" viewBox="0 0 24 32" fill="none" xmlns="http://www.w3.org/2000/svg">
<g clip-path="url(#clip0_94_429)">
<path fill-rule="evenodd" clip-rule="evenodd" d="M19.416 0L19.2308 0.331374L16.6705 4.90056H7.31729L4.58398 0.000249952L19.416 0Z" fill="#E37E00"/>
<path fill-rule="evenodd" clip-rule="evenodd" d="M19.6158 0L24 5.98485L18.8602 15.5881C17.5633 13.9701 15.7911 12.8156 13.7805 12.3814L19.4307 0.331374L19.3864 0.410359L19.5943 0H19.6158Z" fill="#FF6600"/>
<path fill-rule="evenodd" clip-rule="evenodd" d="M5.13801 15.5906L0 5.98509L4.36433 0.000488281H4.37822L4.75407 0.699292L4.67667 0.560506L10.2321 12.3791C8.21546 12.8113 6.43774 13.9681 5.13801 15.5906Z" fill="#D0401B"/>
<path d="M12.0001 32C17.0261 32 21.1005 27.5657 21.1005 22.0957C21.1005 16.6257 17.0261 12.1914 12.0001 12.1914C6.97405 12.1914 2.89966 16.6257 2.89966 22.0957C2.89966 27.5657 6.97405 32 12.0001 32Z" fill="#F5C800"/>
<path fill-rule="evenodd" clip-rule="evenodd" d="M12.0064 14.6165C15.7855 14.6165 18.8494 17.9502 18.8494 22.0639C18.8494 26.1779 15.7855 29.5125 12.0064 29.5125C8.22669 29.5125 5.16284 26.1779 5.16284 22.0639C5.16284 17.9504 8.22669 14.6165 12.0064 14.6165Z" fill="#FFDD61"/>
<path d="M12.208 17.8513L13.2821 20.5887L16.0066 20.8548C16.0493 20.8587 16.09 20.8763 16.1236 20.9052C16.1572 20.9342 16.1823 20.9732 16.1956 21.0176C16.2089 21.0619 16.21 21.1095 16.1986 21.1545C16.1873 21.1994 16.164 21.2398 16.1317 21.2705V21.2706L14.0706 23.2293L14.6803 26.1327C14.69 26.179 14.6867 26.2274 14.671 26.2716C14.6553 26.3159 14.6277 26.354 14.5919 26.3812C14.5562 26.4083 14.5137 26.4232 14.4701 26.4239C14.4265 26.4246 14.3837 26.4112 14.3472 26.3852L12.006 24.8618L9.65743 26.39C9.62065 26.414 9.57823 26.4256 9.53542 26.4236C9.49261 26.4215 9.45131 26.4058 9.41664 26.3783C9.38198 26.3509 9.35548 26.313 9.34044 26.2694C9.3254 26.2257 9.32248 26.1782 9.33205 26.1327L9.33182 26.1326L9.94158 23.2293L7.88034 21.2706C7.84761 21.2394 7.82416 21.1984 7.813 21.1526C7.80183 21.1069 7.80345 21.0586 7.81764 21.0139C7.83184 20.9691 7.85797 20.93 7.89269 20.9016C7.92741 20.8731 7.96915 20.8565 8.01256 20.854L10.7298 20.5887L11.8047 17.8499C11.8215 17.8067 11.8497 17.77 11.8856 17.7442C11.9216 17.7184 11.9637 17.7047 12.0068 17.7048C12.0499 17.705 12.0919 17.719 12.1277 17.745C12.1635 17.7711 12.1915 17.808 12.208 17.8513Z" fill="#E37E00"/>
</g>
<defs>
<clipPath id="clip0_94_429">
<rect width="24" height="32" fill="white"/>
</clipPath>
</defs>
</svg>
