<svg width="14" height="14" viewBox="0 0 14 14" fill="none" xmlns="http://www.w3.org/2000/svg">
<path d="M6.16699 1.83335L3.83366 1.83335C3.12641 1.83335 2.44814 2.11431 1.94804 2.6144C1.44794 3.1145 1.16699 3.79278 1.16699 4.50002L1.16699 10.1667C1.16699 10.8739 1.44794 11.5522 1.94804 12.0523C2.44814 12.5524 3.12641 12.8334 3.83366 12.8334L9.50033 12.8334C10.2076 12.8334 10.8858 12.5524 11.3859 12.0523C11.886 11.5522 12.167 10.8739 12.167 10.1667V7.83335M8.50033 1.16669L12.167 1.16669C12.351 1.16669 12.5177 1.24135 12.6383 1.36202M12.6383 1.36202C12.7634 1.48702 12.8336 1.65656 12.8337 1.83335V5.50002M12.6383 1.36202L12.167 1.83335L7.83366 6.16669" stroke="#B4BDC1" stroke-width="1.5" stroke-linecap="round" stroke-linejoin="round"/>
</svg>
