<svg width="32" height="40" viewBox="0 0 32 40" fill="none" xmlns="http://www.w3.org/2000/svg">
<path d="M16 0C10.477 0 6 4.477 6 10C6 15.523 10.477 20 16 20C21.523 20 26 15.523 26 10C26 4.477 21.523 0 16 0ZM4.25 24C3.123 24 2.04215 24.4476 1.24515 25.2444C0.448149 26.0413 0.000265176 27.122 0 28.249V29C0 32.755 1.942 35.567 4.92 37.38C7.85 39.163 11.786 40 16 40C20.214 40 24.15 39.163 27.08 37.38C30.058 35.567 32 32.755 32 29V28.249C31.9997 27.122 31.5518 26.0413 30.7548 25.2444C29.9578 24.4476 28.877 24 27.75 24H4.25Z" fill="white"/>
</svg>
