<svg width="24" height="28" viewBox="0 0 24 28" fill="none" xmlns="http://www.w3.org/2000/svg">
<path d="M19 7C19 8.85652 18.2625 10.637 16.9497 11.9497C15.637 13.2625 13.8565 14 12 14C10.1435 14 8.36301 13.2625 7.05025 11.9497C5.7375 10.637 5 8.85652 5 7C5 5.14348 5.7375 3.36301 7.05025 2.05025C8.36301 0.737498 10.1435 0 12 0C13.8565 0 15.637 0.737498 16.9497 2.05025C18.2625 3.36301 19 5.14348 19 7ZM17 7C17 5.67392 16.4732 4.40215 15.5355 3.46447C14.5979 2.52678 13.3261 2 12 2C10.6739 2 9.40215 2.52678 8.46447 3.46447C7.52678 4.40215 7 5.67392 7 7C7 8.32608 7.52678 9.59785 8.46447 10.5355C9.40215 11.4732 10.6739 12 12 12C13.3261 12 14.5979 11.4732 15.5355 10.5355C16.4732 9.59785 17 8.32608 17 7ZM3.5 16C2.57174 16 1.6815 16.3687 1.02513 17.0251C0.368749 17.6815 0 18.5717 0 19.5V20C0 22.393 1.523 24.417 3.685 25.793C5.859 27.177 8.802 28 12 28C15.198 28 18.14 27.177 20.315 25.793C22.477 24.417 24 22.393 24 20V19.5C24 18.5717 23.6313 17.6815 22.9749 17.0251C22.3185 16.3687 21.4283 16 20.5 16H3.5ZM2 19.5C2 19.1022 2.15804 18.7206 2.43934 18.4393C2.72064 18.158 3.10218 18 3.5 18H20.5C20.8978 18 21.2794 18.158 21.5607 18.4393C21.842 18.7206 22 19.1022 22 19.5V20C22 21.473 21.06 22.949 19.241 24.106C17.434 25.256 14.877 26 12 26C9.123 26 6.566 25.256 4.759 24.106C2.939 22.95 2 21.472 2 20V19.5Z" fill="white"/>
</svg>
