<svg width="18" height="20" viewBox="0 0 18 20" fill="none" xmlns="http://www.w3.org/2000/svg">
<path fill-rule="evenodd" clip-rule="evenodd" d="M4.07866 5.5349C4.07866 8.36577 6.399 10.6698 9.24996 10.6698C12.1009 10.6698 14.4213 8.36577 14.4213 5.5349C14.4213 2.70402 12.1009 0.400024 9.24996 0.400024C6.399 0.400024 4.07866 2.70402 4.07866 5.5349ZM5.42769 5.5349C5.42769 3.44523 7.14547 1.73956 9.24996 1.73956C11.3545 1.73956 13.0722 3.44523 13.0722 5.5349C13.0722 7.62457 11.3545 9.33024 9.24996 9.33024C7.14547 9.33024 5.42769 7.62457 5.42769 5.5349ZM16.3011 18.9303C16.3011 19.2964 16.6068 19.6 16.9756 19.6C17.3443 19.6 17.6501 19.2964 17.6501 18.9303C17.6501 15.1171 13.8818 12.0093 9.2501 12.0093C4.6184 12.0093 0.850098 15.1171 0.850098 18.9303C0.850098 19.2964 1.15588 19.6 1.52462 19.6C1.89335 19.6 2.19913 19.2964 2.19913 18.9303C2.19913 15.8493 5.36487 13.3489 9.2501 13.3489C13.1353 13.3489 16.3011 15.8493 16.3011 18.9303Z" fill="#89879E"/>
</svg>
