<svg width="16" height="15" viewBox="0 0 16 15" fill="none" xmlns="http://www.w3.org/2000/svg">
<path d="M7.12727 0.300049C10.6213 0.300049 13.4538 3.13252 13.4538 6.62654C13.4538 8.15659 12.9106 9.55978 12.0066 10.6538L15.0243 13.6715C15.2596 13.9068 15.2596 14.2883 15.0243 14.5236C14.789 14.7589 14.4075 14.7589 14.1722 14.5236L11.1545 11.5059C10.0605 12.4099 8.65733 12.953 7.12727 12.953C3.63325 12.953 0.800781 10.1206 0.800781 6.62654C0.800781 3.13252 3.63325 0.300049 7.12727 0.300049ZM7.12727 1.5051C4.29878 1.5051 2.00583 3.79805 2.00583 6.62654C2.00583 9.45504 4.29878 11.748 7.12727 11.748C9.95577 11.748 12.2487 9.45504 12.2487 6.62654C12.2487 3.79805 9.95577 1.5051 7.12727 1.5051Z" fill="#89879E"/>
</svg>
