<svg width="22" height="18" viewBox="0 0 22 18" fill="none" xmlns="http://www.w3.org/2000/svg">
<path d="M9.48194 13.104C9.86082 13.5034 10.3473 13.6851 10.9413 13.6491C11.5353 13.614 11.9687 13.3894 12.2417 12.9754L18.662 3.56015L9.66527 10.2664C9.25623 10.5527 9.0285 10.9976 8.98205 11.601C8.93561 12.2044 9.10224 12.7046 9.48194 13.104ZM10.9999 7.20288e-06C12.1235 7.20288e-06 13.1461 0.144007 14.0677 0.432007C14.99 0.71915 15.9092 1.15844 16.825 1.74986L15.7006 2.55086C14.9811 2.13772 14.2363 1.82358 13.4664 1.60844C12.6964 1.39329 11.8742 1.28572 10.9999 1.28572C8.29069 1.28572 5.98355 2.28772 4.07853 4.29172C2.1735 6.29572 1.2214 8.72229 1.22221 11.5714C1.22221 12.4714 1.33955 13.3607 1.57421 14.2393C1.80888 15.1179 2.13969 15.9429 2.56665 16.7143H19.4332C19.9017 15.9 20.2431 15.0536 20.4574 14.175C20.6717 13.2964 20.7785 12.3857 20.7776 11.4429C20.7776 10.6714 20.6831 9.85972 20.4941 9.00772C20.305 8.15572 20.006 7.362 19.597 6.62658L20.3596 5.44372C20.9545 6.51686 21.3753 7.52658 21.6222 8.47286C21.8691 9.41915 21.995 10.404 21.9999 11.4274C22.0047 12.5331 21.8878 13.5651 21.6491 14.5234C21.4112 15.4817 21.0404 16.4477 20.5369 17.4214C20.4391 17.5929 20.2904 17.7321 20.0908 17.8393C19.8911 17.9464 19.6719 18 19.4332 18H2.56665C2.34258 18 2.1348 17.9426 1.94332 17.8277C1.75266 17.712 1.59214 17.5436 1.46177 17.3224C1.05762 16.5724 0.712958 15.7264 0.427775 14.7844C0.142592 13.8424 0 12.7714 0 11.5714C0 9.99086 0.285183 8.499 0.85555 7.09586C1.4251 5.69272 2.20284 4.46401 3.18876 3.40972C4.17468 2.35543 5.34067 1.52315 6.68673 0.912864C8.0328 0.302579 9.47053 -0.00170708 10.9999 7.20288e-06Z" fill="#65E11A"/>
</svg>
