<svg width="24" height="29" viewBox="0 0 24 29" fill="none" xmlns="http://www.w3.org/2000/svg">
<path d="M15.9286 12.9118L12 16.8824M19.8571 8.94118L21.4286 7.35294M15.1429 1H8.85714M1 16.8824C1 18.3423 1.28452 19.788 1.83732 21.1369C2.39013 22.4857 3.20038 23.7113 4.22183 24.7437C5.24327 25.7761 6.4559 26.595 7.79048 27.1537C9.12506 27.7124 10.5555 28 12 28C13.4445 28 14.8749 27.7124 16.2095 27.1537C17.5441 26.595 18.7567 25.7761 19.7782 24.7437C20.7996 23.7113 21.6099 22.4857 22.1627 21.1369C22.7155 19.788 23 18.3423 23 16.8824C23 13.9338 21.8411 11.106 19.7782 9.02099C17.7153 6.93603 14.9174 5.76471 12 5.76471C9.08262 5.76471 6.28473 6.93603 4.22183 9.02099C2.15893 11.106 1 13.9338 1 16.8824Z" stroke="#DE3E3E" stroke-width="2" stroke-linecap="round" stroke-linejoin="round"/>
</svg>
