<svg width="32" height="33" viewBox="0 0 32 33" fill="none" xmlns="http://www.w3.org/2000/svg">
<path d="M21.8952 2.78298C20.3983 1.29075 18.3076 0.468994 16 0.468994C13.6801 0.468994 11.5824 1.28578 10.0925 2.76877C8.58636 4.2681 7.85253 6.3058 8.02484 8.50614C8.36636 12.8472 11.944 16.3785 16 16.3785C20.056 16.3785 23.6275 12.8479 23.9744 8.50756C24.149 6.3271 23.4106 4.29367 21.8952 2.78298ZM29.5381 32.288H2.46191C2.10751 32.2923 1.75654 32.2235 1.43453 32.0868C1.11252 31.95 0.827573 31.7487 0.600423 31.4975C0.100437 30.9457 -0.101096 30.1921 0.0481309 29.43C0.697344 26.1046 2.72344 23.3112 5.90797 21.3502C8.73712 19.6094 12.3209 18.6513 16 18.6513C19.6791 18.6513 23.2629 19.6101 26.092 21.3502C29.2766 23.3105 31.3027 26.1039 31.9519 29.4293C32.1011 30.1914 31.8996 30.9449 31.3996 31.4968C31.1725 31.7482 30.8876 31.9496 30.5656 32.0865C30.2436 32.2233 29.8926 32.2922 29.5381 32.288Z" fill="#5ACC14"/>
</svg>
