<svg width="37" height="31" viewBox="0 0 37 31" fill="none" xmlns="http://www.w3.org/2000/svg">
<g clip-path="url(#clip0_94_462)">
<path d="M5.55 7.75C5.55 5.69457 6.32964 3.72333 7.71741 2.26992C9.10518 0.816516 10.9874 0 12.95 0C14.9126 0 16.7948 0.816516 18.1826 2.26992C19.5704 3.72333 20.35 5.69457 20.35 7.75C20.35 9.80543 19.5704 11.7767 18.1826 13.2301C16.7948 14.6835 14.9126 15.5 12.95 15.5C10.9874 15.5 9.10518 14.6835 7.71741 13.2301C6.32964 11.7767 5.55 9.80543 5.55 7.75ZM0 29.2018C0 23.2379 4.61344 18.4062 10.308 18.4062H15.592C21.2866 18.4062 25.9 23.2379 25.9 29.2018C25.9 30.1947 25.1311 31 24.183 31H1.71703C0.768906 31 0 30.1947 0 29.2018ZM35.2252 31H27.2586C27.5708 30.4309 27.7558 29.7709 27.7558 29.0625V28.5781C27.7558 24.9029 26.1891 21.6031 23.7205 19.3871C23.8592 19.3811 23.9922 19.375 24.1309 19.375H27.6806C32.8259 19.375 37 23.7465 37 29.1412C37 30.1705 36.2022 31 35.2252 31ZM24.975 15.5C23.1828 15.5 21.5641 14.7371 20.3905 13.508C21.5294 11.8975 22.2 9.90547 22.2 7.75C22.2 6.12734 21.8184 4.59551 21.142 3.25137C22.2173 2.42793 23.5413 1.9375 24.975 1.9375C28.5536 1.9375 31.45 4.9709 31.45 8.71875C31.45 12.4666 28.5536 15.5 24.975 15.5Z" fill="#5ACC14"/>
</g>
<defs>
<clipPath id="clip0_94_462">
<rect width="37" height="31" fill="white"/>
</clipPath>
</defs>
</svg>
