<svg width="43" height="33" viewBox="0 0 43 33" fill="none" xmlns="http://www.w3.org/2000/svg">
<path d="M21.4179 17.0436C24.9592 17.0436 28.1677 18.2092 30.5216 19.8392C32.7583 21.3902 34.6528 23.6952 34.6528 26.1749C34.6528 27.536 34.0686 28.6641 33.1478 29.5026C32.2819 30.294 31.1512 30.8073 29.9866 31.157C27.6591 31.8582 24.5943 32.0838 21.4179 32.0838C18.2415 32.0838 15.1767 31.8582 12.8492 31.157C11.6845 30.8073 10.5539 30.294 9.68605 29.5026C8.76906 28.6659 8.18294 27.5379 8.18294 26.1768C8.18294 23.697 10.0774 21.3921 12.3141 19.8411C14.6681 18.2092 17.8766 17.0436 21.4179 17.0436ZM34.6528 18.9237C36.6267 18.9237 38.4191 19.5723 39.7445 20.4897C40.9546 21.3301 42.2157 22.7269 42.2157 24.4302C42.2157 25.4022 41.7902 26.2087 41.1569 26.7859C40.5783 27.3142 39.8636 27.6244 39.2113 27.8199C38.3227 28.0869 37.2733 28.2241 36.1843 28.2843C36.415 27.6357 36.5435 26.9307 36.5435 26.1749C36.5435 23.2891 34.7303 20.8375 32.7016 19.1361C33.3424 18.9953 33.9966 18.9241 34.6528 18.9237ZM8.18294 18.9237C8.85981 18.9262 9.51022 18.997 10.1342 19.1361C8.10731 20.8375 6.29224 23.2891 6.29224 26.1749C6.29224 26.9307 6.4208 27.6357 6.65147 28.2843C5.56242 28.2241 4.51497 28.0869 3.62445 27.8199C2.97216 27.6244 2.25747 27.3142 1.67702 26.7859C1.34431 26.4895 1.0782 26.1267 0.896086 25.7211C0.713969 25.3155 0.619932 24.8763 0.620117 24.4321C0.620117 22.7307 1.87933 21.332 3.09127 20.4916C4.59033 19.4697 6.36543 18.9231 8.18294 18.9237ZM33.7075 7.64351C34.9611 7.64351 36.1634 8.13869 37.0498 9.02013C37.9362 9.90156 38.4342 11.097 38.4342 12.3436C38.4342 13.5901 37.9362 14.7856 37.0498 15.667C36.1634 16.5484 34.9611 17.0436 33.7075 17.0436C32.4539 17.0436 31.2516 16.5484 30.3651 15.667C29.4787 14.7856 28.9807 13.5901 28.9807 12.3436C28.9807 11.097 29.4787 9.90156 30.3651 9.02013C31.2516 8.13869 32.4539 7.64351 33.7075 7.64351ZM9.12829 7.64351C10.3819 7.64351 11.5842 8.13869 12.4706 9.02013C13.3571 9.90156 13.8551 11.097 13.8551 12.3436C13.8551 13.5901 13.3571 14.7856 12.4706 15.667C11.5842 16.5484 10.3819 17.0436 9.12829 17.0436C7.87468 17.0436 6.67241 16.5484 5.78597 15.667C4.89953 14.7856 4.40153 13.5901 4.40153 12.3436C4.40153 11.097 4.89953 9.90156 5.78597 9.02013C6.67241 8.13869 7.87468 7.64351 9.12829 7.64351ZM21.4179 0.123413C23.4237 0.123413 25.3473 0.915706 26.7656 2.326C28.1839 3.73629 28.9807 5.64906 28.9807 7.64351C28.9807 9.63796 28.1839 11.5507 26.7656 12.961C25.3473 14.3713 23.4237 15.1636 21.4179 15.1636C19.4121 15.1636 17.4885 14.3713 16.0702 12.961C14.6519 11.5507 13.8551 9.63796 13.8551 7.64351C13.8551 5.64906 14.6519 3.73629 16.0702 2.326C17.4885 0.915706 19.4121 0.123413 21.4179 0.123413Z" fill="#D64848"/>
</svg>
