<svg width="35" height="29" viewBox="0 0 35 29" fill="none" xmlns="http://www.w3.org/2000/svg">
<g clip-path="url(#clip0_94_436)">
<path d="M6.67935 11.5874L2.12206 11.3956C1.978 11.3962 1.83779 11.3509 1.7233 11.2668H1.70621C1.59682 11.1812 1.51894 11.064 1.48404 10.9325L0.0200103 5.25255C0.0200103 5.25255 0.0200103 5.23885 0.0200103 5.23063C-0.0113813 5.08641 0.0107514 4.93617 0.0825615 4.80602C0.154372 4.67587 0.271319 4.57404 0.413077 4.51823L11.6297 0.0684963C11.7472 0.0129962 11.8781 -0.0106842 12.0085 -3.31178e-06H22.9916C23.1605 -0.016849 23.3311 -6.02743e-05 23.4929 0.0493164L34.6013 4.40589H34.6184C34.7523 4.46119 34.8635 4.55752 34.9346 4.67989C35.0055 4.81133 35.0276 4.96214 34.9972 5.10733L33.6842 10.9599C33.6842 10.9599 33.6842 10.9764 33.6842 10.9846C33.65 11.1156 33.5719 11.2321 33.462 11.3161C33.3467 11.4063 33.2032 11.4565 33.0547 11.4586L28.4831 11.5079V28.3753C28.4826 28.543 28.413 28.7036 28.2895 28.8219C28.2287 28.881 28.1564 28.9279 28.0767 28.9598C27.997 28.9918 27.9115 29.0083 27.8252 29.0082H7.31737C7.14307 29.0077 6.97609 28.9407 6.8531 28.8219C6.79169 28.7635 6.74295 28.6939 6.7097 28.6173C6.67645 28.5406 6.65936 28.4584 6.65941 28.3753V11.5874H6.67935Z" fill="black"/>
<path d="M22.3193 1.26587H12.6777C13.2104 6.89106 21.8265 6.81982 22.3193 1.26587Z" fill="white"/>
<path d="M2.64315 10.1572L7.36279 10.3544C7.527 10.3618 7.68238 10.4281 7.79835 10.5401C7.91432 10.6522 7.98248 10.802 7.98942 10.96C7.99083 10.9718 7.99083 10.9838 7.98942 10.9956V27.7451H27.1756V10.875C27.1764 10.7081 27.2456 10.5482 27.3683 10.4302C27.491 10.3122 27.6572 10.2456 27.8307 10.2448C29.3888 10.2448 30.9639 10.212 32.5105 10.1955L33.5872 5.37589L23.6181 1.46045C22.8661 8.42275 12.2106 8.47481 11.3931 1.52621L1.42407 5.48001L2.64315 10.1572Z" fill="#FFE256"/>
</g>
<defs>
<clipPath id="clip0_94_436">
<rect width="35" height="29" fill="white"/>
</clipPath>
</defs>
</svg>
